<?xml version="1.0" encoding="UTF-8" standalone="no"?>
<!-- Created with Inkscape (http://www.inkscape.org/) -->

<svg
   xmlns:ns0="http://www.iki.fi/pav/software/textext/"
   xmlns:dc="http://purl.org/dc/elements/1.1/"
   xmlns:cc="http://creativecommons.org/ns#"
   xmlns:rdf="http://www.w3.org/1999/02/22-rdf-syntax-ns#"
   xmlns:svg="http://www.w3.org/2000/svg"
   xmlns="http://www.w3.org/2000/svg"
   xmlns:xlink="http://www.w3.org/1999/xlink"
   xmlns:sodipodi="http://sodipodi.sourceforge.net/DTD/sodipodi-0.dtd"
   xmlns:inkscape="http://www.inkscape.org/namespaces/inkscape"
   width="744.09448819"
   height="1052.3622047"
   id="svg4857"
   version="1.1"
   inkscape:version="0.48.3.1 r9886"
   sodipodi:docname="zigzagcube.svg">
  <sodipodi:namedview
     id="base"
     pagecolor="#ffffff"
     bordercolor="#666666"
     borderopacity="1.0"
     inkscape:pageopacity="0.0"
     inkscape:pageshadow="2"
     inkscape:zoom="2.2384981"
     inkscape:cx="474.00428"
     inkscape:cy="674.02033"
     inkscape:document-units="px"
     inkscape:current-layer="layer1"
     showgrid="false"
     inkscape:window-width="1222"
     inkscape:window-height="701"
     inkscape:window-x="179"
     inkscape:window-y="101"
     inkscape:window-maximized="0"
     inkscape:snap-global="false"
     inkscape:snap-bbox="true"
     inkscape:object-paths="true" />
  <defs
     id="defs4859" />
  <metadata
     id="metadata4862">
    <rdf:RDF>
      <cc:Work
         rdf:about="">
        <dc:format>image/svg+xml</dc:format>
        <dc:type
           rdf:resource="http://purl.org/dc/dcmitype/StillImage" />
        <dc:title />
      </cc:Work>
    </rdf:RDF>
  </metadata>
  <g
     id="layer1"
     inkscape:groupmode="layer"
     inkscape:label="Layer 1">
    <path
       sodipodi:type="arc"
       style="fill:#000000;stroke:#000000;stroke-width:0.29194498;stroke-miterlimit:2.61310005;stroke-dasharray:none;stroke-dashoffset:0"
       id="path3287"
       sodipodi:cx="204.80843"
       sodipodi:cy="308.13229"
       sodipodi:rx="2.7779195"
       sodipodi:ry="2.7779195"
       d="m 207.58635,308.13229 a 2.7779195,2.7779195 0 1 1 -5.55584,0 2.7779195,2.7779195 0 1 1 5.55584,0 z"
       transform="matrix(4.2026377,0,0,4.2026377,-394.54368,-914.41371)" />
    <path
       transform="matrix(4.2026377,0,0,4.2026377,-393.87359,-945.01458)"
       d="m 207.58635,308.13229 a 2.7779195,2.7779195 0 1 1 -5.55584,0 2.7779195,2.7779195 0 1 1 5.55584,0 z"
       sodipodi:ry="2.7779195"
       sodipodi:rx="2.7779195"
       sodipodi:cy="308.13229"
       sodipodi:cx="204.80843"
       id="path3283"
       style="fill:#000000;stroke:#000000;stroke-width:0.29194498;stroke-miterlimit:2.61310005;stroke-dasharray:none;stroke-dashoffset:0"
       sodipodi:type="arc" />
    <path
       sodipodi:type="arc"
       style="fill:#000000;stroke:#000000;stroke-width:0.29194498;stroke-miterlimit:2.61310005;stroke-dasharray:none;stroke-dashoffset:0"
       id="path3281"
       sodipodi:cx="204.80843"
       sodipodi:cy="308.13229"
       sodipodi:rx="2.7779195"
       sodipodi:ry="2.7779195"
       d="m 207.58635,308.13229 a 2.7779195,2.7779195 0 1 1 -5.55584,0 2.7779195,2.7779195 0 1 1 5.55584,0 z"
       transform="matrix(4.2026377,0,0,4.2026377,-446.5875,-944.79122)" />
    <path
       d="m 413.61837,378.66611 52.71725,0 0,-30.248 -52.71725,0 0,30.248 z"
       style="fill:none;stroke:#000000;stroke-width:14;stroke-linecap:butt;stroke-linejoin:miter;stroke-miterlimit:2.61310004999999990;stroke-opacity:1;stroke-dasharray:none"
       id="path88"
       inkscape:connector-curvature="0" />
    <path
       d="m 413.61837,348.41861 -79.07625,-45.37125 210.86875,0 -79.075,45.37125"
       style="fill:none;stroke:#000000;stroke-width:14;stroke-linecap:butt;stroke-linejoin:miter;stroke-miterlimit:2.61310004999999990;stroke-opacity:1;stroke-dasharray:none"
       id="path90"
       inkscape:connector-curvature="0" />
    <path
       d="m 545.41087,303.04736 0,120.99 -210.86875,0 79.07625,-45.37125"
       style="fill:none;stroke:#808080;stroke-width:16;stroke-linecap:butt;stroke-linejoin:miter;stroke-miterlimit:2.61310004999999990;stroke-opacity:1;stroke-dasharray:none"
       id="path92"
       inkscape:connector-curvature="0" />
    <path
       d="m 334.54212,303.04736 0,120.99"
       style="fill:none;stroke:#000000;stroke-width:16;stroke-linecap:butt;stroke-linejoin:miter;stroke-miterlimit:2.61310004999999990;stroke-opacity:1;stroke-dasharray:none"
       id="path94"
       inkscape:connector-curvature="0" />
    <path
       d="m 466.33587,378.66611 79.075,45.37125"
       style="fill:none;stroke:#000000;stroke-width:14;stroke-linecap:butt;stroke-linejoin:miter;stroke-miterlimit:2.61310004999999990;stroke-opacity:1;stroke-dasharray:none"
       id="path96"
       inkscape:connector-curvature="0" />
    <path
       d="m 345.08587,421.01361 36.90125,-21.17375"
       style="fill:none;stroke:#231f20;stroke-width:0.27000001;stroke-linecap:butt;stroke-linejoin:miter;stroke-miterlimit:2.61310005;stroke-opacity:1;stroke-dasharray:0.27, 1.35;stroke-dashoffset:0"
       id="path98"
       inkscape:connector-curvature="0" />
    <path
       sodipodi:type="arc"
       style="fill:#000000;stroke:#000000;stroke-width:0.29194498000000002;stroke-miterlimit:2.61310004999999990;stroke-dasharray:none;stroke-dashoffset:0"
       id="path3002"
       sodipodi:cx="204.80843"
       sodipodi:cy="308.13229"
       sodipodi:rx="2.7779195"
       sodipodi:ry="2.7779195"
       d="m 207.58635,308.13229 a 2.7779195,2.7779195 0 1 1 -5.55584,0 2.7779195,2.7779195 0 1 1 5.55584,0 z"
       transform="matrix(4.2026377,0,0,4.2026377,-314.81966,-991.92103)" />
    <g
       transform="matrix(-1,0,0,1,879.76799,0)"
       id="g3780">
      <path
         inkscape:connector-curvature="0"
         id="path3782"
         style="fill:none;stroke:#ffffff;stroke-width:2;stroke-linecap:butt;stroke-linejoin:miter;stroke-miterlimit:2.61310005;stroke-opacity:1;stroke-dasharray:none"
         d="m 345.08587,421.01361 36.90125,-21.17375 0,-6.05 26.36,-15.12375 0,-12.09875 10.5425,-6.05 0,-9.075 15.815,0 10.54375,-6.04875 21.0875,0 26.3575,-15.12375 10.54375,0 36.9025,-21.17375 0,51.42125 10.5425,6.05 0,60.495 -105.43375,0 -10.54375,-6.04875" />
      <path
         inkscape:connector-curvature="0"
         id="path3784"
         style="fill:none;stroke:#ffffff;stroke-width:2;stroke-linecap:butt;stroke-linejoin:miter;stroke-miterlimit:2.61310005;stroke-opacity:1;stroke-dasharray:none"
         d="m 434.70462,421.01361 -89.61875,0" />
    </g>
    <path
       transform="matrix(4.2026377,0,0,4.2026377,-524.76492,-991.92103)"
       d="m 207.58635,308.13229 a 2.7779195,2.7779195 0 1 1 -5.55584,0 2.7779195,2.7779195 0 1 1 5.55584,0 z"
       sodipodi:ry="2.7779195"
       sodipodi:rx="2.7779195"
       sodipodi:cy="308.13229"
       sodipodi:cx="204.80843"
       id="path3786"
       style="fill:#000000;stroke:#000000;stroke-width:0.29194498;stroke-miterlimit:2.61310005;stroke-dasharray:none;stroke-dashoffset:0"
       sodipodi:type="arc" />
    <path
       transform="matrix(4.2026377,0,0,4.2026377,-315.29951,-867.90603)"
       d="m 207.58635,308.13229 a 2.7779195,2.7779195 0 1 1 -5.55584,0 2.7779195,2.7779195 0 1 1 5.55584,0 z"
       sodipodi:ry="2.7779195"
       sodipodi:rx="2.7779195"
       sodipodi:cy="308.13229"
       sodipodi:cx="204.80843"
       id="path3000"
       style="fill:#000000;stroke:#000000;stroke-width:0.29194498000000002;stroke-miterlimit:2.61310004999999990;stroke-dasharray:none;stroke-dashoffset:0"
       sodipodi:type="arc" />
    <path
       sodipodi:type="arc"
       style="fill:#000000;stroke:#000000;stroke-width:0.29194498000000002;stroke-miterlimit:2.61310004999999990;stroke-dasharray:none;stroke-dashoffset:0"
       id="path2998"
       sodipodi:cx="204.80843"
       sodipodi:cy="308.13229"
       sodipodi:rx="2.7779195"
       sodipodi:ry="2.7779195"
       d="m 207.58635,308.13229 a 2.7779195,2.7779195 0 1 1 -5.55584,0 2.7779195,2.7779195 0 1 1 5.55584,0 z"
       transform="matrix(4.2026377,0,0,4.2026377,-526.53995,-869.92103)" />
    <path
       transform="matrix(4.2026377,0,0,4.2026377,-314.81966,-991.92103)"
       d="m 207.58635,308.13229 a 2.7779195,2.7779195 0 1 1 -5.55584,0 2.7779195,2.7779195 0 1 1 5.55584,0 z"
       sodipodi:ry="2.7779195"
       sodipodi:rx="2.7779195"
       sodipodi:cy="308.13229"
       sodipodi:cx="204.80843"
       id="path3004"
       style="fill:#000000;stroke:#000000;stroke-width:0.29194498000000002;stroke-miterlimit:2.61310004999999990;stroke-dasharray:none;stroke-dashoffset:0"
       sodipodi:type="arc" />
    <rect
       style="fill:#ffffff;stroke:#000000;stroke-width:0.82092583;stroke-miterlimit:2.61310005;stroke-dasharray:none;stroke-dashoffset:0"
       id="rect3075"
       width="18.991896"
       height="18.185843"
       x="441.74335"
       y="423.32535" />
    <path
       inkscape:connector-curvature="0"
       id="path9570"
       d="m 329.15162,357.10045 10.42419,12.95127"
       style="fill:none;stroke:#ffffff;stroke-width:2;stroke-linecap:butt;stroke-linejoin:miter;stroke-opacity:1;stroke-miterlimit:4;stroke-dasharray:none" />
    <path
       style="fill:none;stroke:#ffffff;stroke-width:2;stroke-linecap:butt;stroke-linejoin:miter;stroke-miterlimit:4;stroke-opacity:1;stroke-dasharray:none"
       d="m 434.65703,296.80262 10.42419,12.95127"
       id="path9572"
       inkscape:connector-curvature="0" />
    <path
       inkscape:connector-curvature="0"
       id="path11778"
       d="M 539.19141,358.89783 549.6156,371.8491"
       style="fill:none;stroke:#ffffff;stroke-width:2;stroke-linecap:butt;stroke-linejoin:miter;stroke-miterlimit:4;stroke-opacity:1;stroke-dasharray:none" />
    <path
       transform="matrix(4.2026377,0,0,4.2026377,-447.25759,-915.30717)"
       d="m 207.58635,308.13229 a 2.7779195,2.7779195 0 1 1 -5.55584,0 2.7779195,2.7779195 0 1 1 5.55584,0 z"
       sodipodi:ry="2.7779195"
       sodipodi:rx="2.7779195"
       sodipodi:cy="308.13229"
       sodipodi:cx="204.80843"
       id="path3285"
       style="fill:#000000;stroke:#000000;stroke-width:0.29194498;stroke-miterlimit:2.61310005;stroke-dasharray:none;stroke-dashoffset:0"
       sodipodi:type="arc" />
    <g
       id="g3577"
       transform="matrix(1.7723916,0,0,1.7723916,46.87003,199.12431)"
       ns0:preamble=""
       ns0:text="$Z_1$">
      <defs
         id="defs3579">
        <g
           id="g3581">
          <symbol
             id="textext-53dcb3b6-0"
             overflow="visible"
             style="overflow:visible">
            <path
               id="path3584"
               d=""
               style="stroke:none"
               inkscape:connector-curvature="0" />
          </symbol>
          <symbol
             id="textext-53dcb3b6-1"
             overflow="visible"
             style="overflow:visible">
            <path
               id="path3587"
               d="m 7.171875,-6.5625 c 0.015625,-0.046875 0.03125,-0.09375 0.03125,-0.15625 0,-0.09375 -0.046875,-0.09375 -0.25,-0.09375 l -4.203125,0 c -0.234375,0 -0.25,0.015625 -0.3125,0.203125 L 1.890625,-4.8125 c -0.015625,0.046875 -0.03125,0.125 -0.03125,0.140625 0,0 0,0.109375 0.125,0.109375 0.09375,0 0.109375,-0.078125 0.125,-0.109375 C 2.5,-5.84375 3.015625,-6.5 4.5625,-6.5 l 1.625,0 -5.5625,6.234375 c 0,0 -0.046875,0.140625 -0.046875,0.171875 C 0.578125,0 0.640625,0 0.828125,0 L 5.15625,0 c 0.25,0 0.25,-0.015625 0.3125,-0.203125 L 6.1875,-2.40625 c 0,-0.03125 0.03125,-0.109375 0.03125,-0.140625 0,-0.0625 -0.03125,-0.109375 -0.125,-0.109375 -0.09375,0 -0.109375,0.03125 -0.171875,0.25 C 5.484375,-1.0625 5,-0.34375 3.3125,-0.34375 l -1.703125,0 z"
               style="stroke:none"
               inkscape:connector-curvature="0" />
          </symbol>
          <symbol
             id="textext-53dcb3b6-2"
             overflow="visible"
             style="overflow:visible">
            <path
               id="path3590"
               d=""
               style="stroke:none"
               inkscape:connector-curvature="0" />
          </symbol>
          <symbol
             id="textext-53dcb3b6-3"
             overflow="visible"
             style="overflow:visible">
            <path
               id="path3593"
               d="m 2.328125,-4.4375 c 0,-0.1875 0,-0.1875 -0.203125,-0.1875 -0.453125,0.4375 -1.078125,0.4375 -1.359375,0.4375 l 0,0.25 c 0.15625,0 0.625,0 1,-0.1875 l 0,3.546875 c 0,0.234375 0,0.328125 -0.6875,0.328125 l -0.265625,0 0,0.25 c 0.125,0 0.984375,-0.03125 1.234375,-0.03125 0.21875,0 1.09375,0.03125 1.25,0.03125 l 0,-0.25 -0.265625,0 c -0.703125,0 -0.703125,-0.09375 -0.703125,-0.328125 z"
               style="stroke:none"
               inkscape:connector-curvature="0" />
          </symbol>
        </g>
      </defs>
      <g
         id="textext-53dcb3b6-4">
        <g
           id="g3596"
           style="fill:#000000;fill-opacity:1">
          <use
             id="use3598"
             y="134.765"
             x="223.43201"
             xlink:href="#textext-53dcb3b6-1"
             width="744.09448"
             height="1052.3622" />
        </g>
        <g
           id="g3600"
           style="fill:#000000;fill-opacity:1">
          <use
             id="use3602"
             y="136.259"
             x="230.233"
             xlink:href="#textext-53dcb3b6-3"
             width="744.09448"
             height="1052.3622" />
        </g>
      </g>
    </g>
    <rect
       style="fill:#ffffff;stroke:#000000;stroke-width:0.82092583;stroke-miterlimit:2.61310005;stroke-dasharray:none;stroke-dashoffset:0"
       id="rect3075-5"
       width="18.991896"
       height="18.185843"
       x="310.4964"
       y="339.42813" />
    <g
       ns0:text="$Z_2$"
       ns0:preamble=""
       transform="matrix(1.7723916,0,0,1.7723916,-85.940441,114.557)"
       id="g4285">
      <defs
         id="defs4287">
        <g
           id="g4289">
          <symbol
             style="overflow:visible"
             overflow="visible"
             id="textext-763535fc-0">
            <path
               inkscape:connector-curvature="0"
               style="stroke:none"
               d=""
               id="path4292" />
          </symbol>
          <symbol
             style="overflow:visible"
             overflow="visible"
             id="textext-763535fc-1">
            <path
               inkscape:connector-curvature="0"
               style="stroke:none"
               d="m 7.171875,-6.5625 c 0.015625,-0.046875 0.03125,-0.09375 0.03125,-0.15625 0,-0.09375 -0.046875,-0.09375 -0.25,-0.09375 l -4.203125,0 c -0.234375,0 -0.25,0.015625 -0.3125,0.203125 L 1.890625,-4.8125 c -0.015625,0.046875 -0.03125,0.125 -0.03125,0.140625 0,0 0,0.109375 0.125,0.109375 0.09375,0 0.109375,-0.078125 0.125,-0.109375 C 2.5,-5.84375 3.015625,-6.5 4.5625,-6.5 l 1.625,0 -5.5625,6.234375 c 0,0 -0.046875,0.140625 -0.046875,0.171875 C 0.578125,0 0.640625,0 0.828125,0 L 5.15625,0 c 0.25,0 0.25,-0.015625 0.3125,-0.203125 L 6.1875,-2.40625 c 0,-0.03125 0.03125,-0.109375 0.03125,-0.140625 0,-0.0625 -0.03125,-0.109375 -0.125,-0.109375 -0.09375,0 -0.109375,0.03125 -0.171875,0.25 C 5.484375,-1.0625 5,-0.34375 3.3125,-0.34375 l -1.703125,0 z"
               id="path4295" />
          </symbol>
          <symbol
             style="overflow:visible"
             overflow="visible"
             id="textext-763535fc-2">
            <path
               inkscape:connector-curvature="0"
               style="stroke:none"
               d=""
               id="path4298" />
          </symbol>
          <symbol
             style="overflow:visible"
             overflow="visible"
             id="textext-763535fc-3">
            <path
               inkscape:connector-curvature="0"
               style="stroke:none"
               d="m 3.515625,-1.265625 -0.234375,0 c -0.015625,0.15625 -0.09375,0.5625 -0.1875,0.625 -0.046875,0.046875 -0.578125,0.046875 -0.6875,0.046875 l -1.28125,0 c 0.734375,-0.640625 0.984375,-0.84375 1.390625,-1.171875 0.515625,-0.40625 1,-0.84375 1,-1.5 0,-0.84375 -0.734375,-1.359375 -1.625,-1.359375 -0.859375,0 -1.453125,0.609375 -1.453125,1.25 0,0.34375 0.296875,0.390625 0.375,0.390625 0.15625,0 0.359375,-0.125 0.359375,-0.375 0,-0.125 -0.046875,-0.375 -0.40625,-0.375 C 0.984375,-4.21875 1.453125,-4.375 1.78125,-4.375 c 0.703125,0 1.0625,0.546875 1.0625,1.109375 0,0.609375 -0.4375,1.078125 -0.65625,1.328125 L 0.515625,-0.265625 C 0.4375,-0.203125 0.4375,-0.1875 0.4375,0 l 2.875,0 z"
               id="path4301" />
          </symbol>
        </g>
      </defs>
      <g
         id="textext-763535fc-4">
        <g
           style="fill:#000000;fill-opacity:1"
           id="g4304">
          <use
             height="1052.3622"
             width="744.09448"
             xlink:href="#textext-763535fc-1"
             x="223.43201"
             y="134.765"
             id="use4306" />
        </g>
        <g
           style="fill:#000000;fill-opacity:1"
           id="g4308">
          <use
             height="1052.3622"
             width="744.09448"
             xlink:href="#textext-763535fc-3"
             x="230.233"
             y="136.259"
             id="use4310" />
        </g>
      </g>
    </g>
    <rect
       y="282.69366"
       x="413.9729"
       height="18.185843"
       width="18.991896"
       id="rect4635"
       style="fill:#ffffff;stroke:#000000;stroke-width:0.82092583;stroke-miterlimit:2.61310005;stroke-dasharray:none;stroke-dashoffset:0" />
    <g
       id="g4995"
       transform="matrix(1.7723916,0,0,1.7723916,17.536054,57.822534)"
       ns0:preamble=""
       ns0:text="$Z_3$">
      <defs
         id="defs4997">
        <g
           id="g4999">
          <symbol
             style="overflow:visible"
             id="textext-00a890b3-0"
             overflow="visible">
            <path
               inkscape:connector-curvature="0"
               id="path5002"
               d=""
               style="stroke:none" />
          </symbol>
          <symbol
             style="overflow:visible"
             id="textext-00a890b3-1"
             overflow="visible">
            <path
               inkscape:connector-curvature="0"
               id="path5005"
               d="m 7.171875,-6.5625 c 0.015625,-0.046875 0.03125,-0.09375 0.03125,-0.15625 0,-0.09375 -0.046875,-0.09375 -0.25,-0.09375 l -4.203125,0 c -0.234375,0 -0.25,0.015625 -0.3125,0.203125 L 1.890625,-4.8125 c -0.015625,0.046875 -0.03125,0.125 -0.03125,0.140625 0,0 0,0.109375 0.125,0.109375 0.09375,0 0.109375,-0.078125 0.125,-0.109375 C 2.5,-5.84375 3.015625,-6.5 4.5625,-6.5 l 1.625,0 -5.5625,6.234375 c 0,0 -0.046875,0.140625 -0.046875,0.171875 C 0.578125,0 0.640625,0 0.828125,0 L 5.15625,0 c 0.25,0 0.25,-0.015625 0.3125,-0.203125 L 6.1875,-2.40625 c 0,-0.03125 0.03125,-0.109375 0.03125,-0.140625 0,-0.0625 -0.03125,-0.109375 -0.125,-0.109375 -0.09375,0 -0.109375,0.03125 -0.171875,0.25 C 5.484375,-1.0625 5,-0.34375 3.3125,-0.34375 l -1.703125,0 z"
               style="stroke:none" />
          </symbol>
          <symbol
             style="overflow:visible"
             id="textext-00a890b3-2"
             overflow="visible">
            <path
               inkscape:connector-curvature="0"
               id="path5008"
               d=""
               style="stroke:none" />
          </symbol>
          <symbol
             style="overflow:visible"
             id="textext-00a890b3-3"
             overflow="visible">
            <path
               inkscape:connector-curvature="0"
               id="path5011"
               d="m 1.90625,-2.328125 c 0.546875,0 0.9375,0.375 0.9375,1.125 0,0.859375 -0.515625,1.125 -0.90625,1.125 -0.28125,0 -0.90625,-0.078125 -1.1875,-0.5 0.328125,0 0.40625,-0.234375 0.40625,-0.390625 0,-0.21875 -0.171875,-0.375 -0.390625,-0.375 -0.1875,0 -0.390625,0.125 -0.390625,0.40625 0,0.65625 0.71875,1.078125 1.5625,1.078125 0.96875,0 1.640625,-0.65625 1.640625,-1.34375 0,-0.546875 -0.4375,-1.09375 -1.203125,-1.25 0.71875,-0.265625 0.984375,-0.78125 0.984375,-1.21875 0,-0.546875 -0.625,-0.953125 -1.40625,-0.953125 -0.765625,0 -1.359375,0.375 -1.359375,0.9375 0,0.234375 0.15625,0.359375 0.359375,0.359375 0.21875,0 0.359375,-0.15625 0.359375,-0.34375 0,-0.203125 -0.140625,-0.359375 -0.359375,-0.375 0.25,-0.296875 0.71875,-0.375 0.984375,-0.375 0.3125,0 0.75,0.15625 0.75,0.75 0,0.296875 -0.09375,0.625 -0.28125,0.828125 -0.21875,0.265625 -0.421875,0.28125 -0.765625,0.3125 -0.171875,0.015625 -0.1875,0.015625 -0.21875,0.015625 -0.015625,0 -0.078125,0.015625 -0.078125,0.09375 0,0.09375 0.0625,0.09375 0.1875,0.09375 z"
               style="stroke:none" />
          </symbol>
        </g>
      </defs>
      <g
         id="textext-00a890b3-4">
        <g
           id="g5014"
           style="fill:#000000;fill-opacity:1">
          <use
             height="1052.3622"
             width="744.09448"
             id="use5016"
             y="134.765"
             x="223.43201"
             xlink:href="#textext-00a890b3-1" />
        </g>
        <g
           id="g5018"
           style="fill:#000000;fill-opacity:1">
          <use
             height="1052.3622"
             width="744.09448"
             id="use5020"
             y="136.259"
             x="230.233"
             xlink:href="#textext-00a890b3-3" />
        </g>
      </g>
    </g>
    <rect
       style="fill:#ffffff;stroke:#000000;stroke-width:0.82092583;stroke-miterlimit:2.61310005;stroke-dasharray:none;stroke-dashoffset:0"
       id="rect5362"
       width="18.991896"
       height="18.185843"
       x="550.27362"
       y="370.25238" />
    <g
       ns0:text="$Z_4$"
       ns0:preamble=""
       transform="matrix(1.7723916,0,0,1.7723916,153.83679,145.38124)"
       id="g5739">
      <defs
         id="defs5741">
        <g
           id="g5743">
          <symbol
             style="overflow:visible"
             overflow="visible"
             id="textext-75738306-0">
            <path
               inkscape:connector-curvature="0"
               style="stroke:none"
               d=""
               id="path5746" />
          </symbol>
          <symbol
             style="overflow:visible"
             overflow="visible"
             id="textext-75738306-1">
            <path
               inkscape:connector-curvature="0"
               style="stroke:none"
               d="m 7.171875,-6.5625 c 0.015625,-0.046875 0.03125,-0.09375 0.03125,-0.15625 0,-0.09375 -0.046875,-0.09375 -0.25,-0.09375 l -4.203125,0 c -0.234375,0 -0.25,0.015625 -0.3125,0.203125 L 1.890625,-4.8125 c -0.015625,0.046875 -0.03125,0.125 -0.03125,0.140625 0,0 0,0.109375 0.125,0.109375 0.09375,0 0.109375,-0.078125 0.125,-0.109375 C 2.5,-5.84375 3.015625,-6.5 4.5625,-6.5 l 1.625,0 -5.5625,6.234375 c 0,0 -0.046875,0.140625 -0.046875,0.171875 C 0.578125,0 0.640625,0 0.828125,0 L 5.15625,0 c 0.25,0 0.25,-0.015625 0.3125,-0.203125 L 6.1875,-2.40625 c 0,-0.03125 0.03125,-0.109375 0.03125,-0.140625 0,-0.0625 -0.03125,-0.109375 -0.125,-0.109375 -0.09375,0 -0.109375,0.03125 -0.171875,0.25 C 5.484375,-1.0625 5,-0.34375 3.3125,-0.34375 l -1.703125,0 z"
               id="path5749" />
          </symbol>
          <symbol
             style="overflow:visible"
             overflow="visible"
             id="textext-75738306-2">
            <path
               inkscape:connector-curvature="0"
               style="stroke:none"
               d=""
               id="path5752" />
          </symbol>
          <symbol
             style="overflow:visible"
             overflow="visible"
             id="textext-75738306-3">
            <path
               inkscape:connector-curvature="0"
               style="stroke:none"
               d="m 3.6875,-1.140625 0,-0.25 -0.78125,0 0,-3.109375 c 0,-0.140625 0,-0.203125 -0.140625,-0.203125 -0.09375,0 -0.125,0 -0.1875,0.109375 l -2.3125,3.203125 0,0.25 2.0625,0 0,0.5625 c 0,0.25 0,0.328125 -0.578125,0.328125 l -0.1875,0 0,0.25 C 1.921875,-0.015625 2.359375,-0.03125 2.609375,-0.03125 2.875,-0.03125 3.3125,-0.015625 3.671875,0 l 0,-0.25 -0.1875,0 C 2.90625,-0.25 2.90625,-0.328125 2.90625,-0.578125 l 0,-0.5625 z M 2.375,-3.9375 l 0,2.546875 -1.84375,0 z"
               id="path5755" />
          </symbol>
        </g>
      </defs>
      <g
         id="textext-75738306-4">
        <g
           style="fill:#000000;fill-opacity:1"
           id="g5758">
          <use
             height="1052.3622"
             width="744.09448"
             xlink:href="#textext-75738306-1"
             x="223.43201"
             y="134.765"
             id="use5760" />
        </g>
        <g
           style="fill:#000000;fill-opacity:1"
           id="g5762">
          <use
             height="1052.3622"
             width="744.09448"
             xlink:href="#textext-75738306-3"
             x="230.233"
             y="136.259"
             id="use5764" />
        </g>
      </g>
    </g>
    <g
       id="g6409"
       transform="matrix(1.7723916,0,0,1.7723916,44.596301,41.85041)"
       ns0:preamble=""
       ns0:text="$F_0$">
      <defs
         id="defs6411">
        <g
           id="g6413">
          <symbol
             id="textext-b0593661-0"
             overflow="visible">
            <path
               id="path6416"
               d=""
               style="stroke:none;" />
          </symbol>
          <symbol
             id="textext-b0593661-1"
             overflow="visible">
            <path
               id="path6419"
               d="M 3.015625 -3.234375 L 3.984375 -3.234375 C 4.734375 -3.234375 4.8125 -3.078125 4.8125 -2.796875 C 4.8125 -2.71875 4.8125 -2.609375 4.75 -2.296875 C 4.71875 -2.25 4.71875 -2.21875 4.71875 -2.1875 C 4.71875 -2.109375 4.78125 -2.078125 4.828125 -2.078125 C 4.9375 -2.078125 4.9375 -2.109375 4.984375 -2.28125 L 5.53125 -4.453125 C 5.5625 -4.5625 5.5625 -4.578125 5.5625 -4.609375 C 5.5625 -4.625 5.546875 -4.71875 5.4375 -4.71875 C 5.34375 -4.71875 5.328125 -4.671875 5.296875 -4.5 C 5.078125 -3.734375 4.859375 -3.546875 4 -3.546875 L 3.09375 -3.546875 L 3.734375 -6.078125 C 3.828125 -6.4375 3.84375 -6.46875 4.28125 -6.46875 L 5.59375 -6.46875 C 6.8125 -6.46875 7.046875 -6.140625 7.046875 -5.375 C 7.046875 -5.140625 7.046875 -5.109375 7.015625 -4.828125 C 7 -4.703125 7 -4.6875 7 -4.65625 C 7 -4.609375 7.03125 -4.53125 7.125 -4.53125 C 7.234375 -4.53125 7.234375 -4.59375 7.25 -4.78125 L 7.453125 -6.515625 C 7.484375 -6.78125 7.4375 -6.78125 7.1875 -6.78125 L 2.296875 -6.78125 C 2.109375 -6.78125 2 -6.78125 2 -6.578125 C 2 -6.46875 2.09375 -6.46875 2.28125 -6.46875 C 2.65625 -6.46875 2.9375 -6.46875 2.9375 -6.296875 C 2.9375 -6.25 2.9375 -6.234375 2.875 -6.046875 L 1.5625 -0.78125 C 1.46875 -0.390625 1.453125 -0.3125 0.65625 -0.3125 C 0.484375 -0.3125 0.375 -0.3125 0.375 -0.125 C 0.375 0 0.5 0 0.53125 0 C 0.8125 0 1.5625 -0.03125 1.84375 -0.03125 C 2.171875 -0.03125 3 0 3.328125 0 C 3.421875 0 3.53125 0 3.53125 -0.1875 C 3.53125 -0.265625 3.484375 -0.296875 3.484375 -0.296875 C 3.453125 -0.3125 3.421875 -0.3125 3.203125 -0.3125 C 2.984375 -0.3125 2.9375 -0.3125 2.6875 -0.328125 C 2.390625 -0.359375 2.359375 -0.40625 2.359375 -0.53125 C 2.359375 -0.546875 2.359375 -0.609375 2.40625 -0.75 Z "
               style="stroke:none;" />
          </symbol>
          <symbol
             id="textext-b0593661-2"
             overflow="visible">
            <path
               id="path6422"
               d=""
               style="stroke:none;" />
          </symbol>
          <symbol
             id="textext-b0593661-3"
             overflow="visible">
            <path
               id="path6425"
               d="M 3.59375 -2.21875 C 3.59375 -2.984375 3.5 -3.546875 3.1875 -4.03125 C 2.96875 -4.34375 2.53125 -4.625 1.984375 -4.625 C 0.359375 -4.625 0.359375 -2.71875 0.359375 -2.21875 C 0.359375 -1.71875 0.359375 0.140625 1.984375 0.140625 C 3.59375 0.140625 3.59375 -1.71875 3.59375 -2.21875 Z M 1.984375 -0.0625 C 1.65625 -0.0625 1.234375 -0.25 1.09375 -0.8125 C 1 -1.21875 1 -1.796875 1 -2.3125 C 1 -2.828125 1 -3.359375 1.09375 -3.734375 C 1.25 -4.28125 1.6875 -4.4375 1.984375 -4.4375 C 2.359375 -4.4375 2.71875 -4.203125 2.84375 -3.796875 C 2.953125 -3.421875 2.96875 -2.921875 2.96875 -2.3125 C 2.96875 -1.796875 2.96875 -1.28125 2.875 -0.84375 C 2.734375 -0.203125 2.265625 -0.0625 1.984375 -0.0625 Z "
               style="stroke:none;" />
          </symbol>
        </g>
      </defs>
      <g
         id="textext-b0593661-4">
        <g
           id="g6428"
           style="fill:rgb(0%,0%,0%);fill-opacity:1;">
          <use
             id="use6430"
             y="134.765"
             x="223.432"
             xlink:href="#textext-b0593661-1" />
        </g>
        <g
           id="g6432"
           style="fill:rgb(0%,0%,0%);fill-opacity:1;">
          <use
             id="use6434"
             y="136.259"
             x="229.839"
             xlink:href="#textext-b0593661-3" />
        </g>
      </g>
    </g>
    <g
       ns0:text="$V_2$"
       ns0:preamble=""
       transform="matrix(1.7723916,0,0,1.7723916,164.60505,55.024527)"
       id="g7022">
      <defs
         id="defs7024">
        <g
           id="g7026">
          <symbol
             overflow="visible"
             id="textext-01568c3d-0">
            <path
               style="stroke:none;"
               d=""
               id="path7029" />
          </symbol>
          <symbol
             overflow="visible"
             id="textext-01568c3d-1">
            <path
               style="stroke:none;"
               d="M 6.265625 -5.671875 C 6.75 -6.453125 7.171875 -6.484375 7.53125 -6.5 C 7.65625 -6.515625 7.671875 -6.671875 7.671875 -6.6875 C 7.671875 -6.765625 7.609375 -6.8125 7.53125 -6.8125 C 7.28125 -6.8125 6.984375 -6.78125 6.71875 -6.78125 C 6.390625 -6.78125 6.046875 -6.8125 5.734375 -6.8125 C 5.671875 -6.8125 5.546875 -6.8125 5.546875 -6.625 C 5.546875 -6.515625 5.625 -6.5 5.703125 -6.5 C 5.96875 -6.484375 6.15625 -6.375 6.15625 -6.171875 C 6.15625 -6.015625 6.015625 -5.796875 6.015625 -5.796875 L 2.953125 -0.921875 L 2.265625 -6.203125 C 2.265625 -6.375 2.5 -6.5 2.953125 -6.5 C 3.09375 -6.5 3.203125 -6.5 3.203125 -6.703125 C 3.203125 -6.78125 3.125 -6.8125 3.078125 -6.8125 C 2.671875 -6.8125 2.25 -6.78125 1.828125 -6.78125 C 1.65625 -6.78125 1.46875 -6.78125 1.28125 -6.78125 C 1.109375 -6.78125 0.921875 -6.8125 0.75 -6.8125 C 0.671875 -6.8125 0.5625 -6.8125 0.5625 -6.625 C 0.5625 -6.5 0.640625 -6.5 0.8125 -6.5 C 1.359375 -6.5 1.375 -6.40625 1.40625 -6.15625 L 2.1875 -0.015625 C 2.21875 0.1875 2.265625 0.21875 2.390625 0.21875 C 2.546875 0.21875 2.59375 0.171875 2.671875 0.046875 Z "
               id="path7032" />
          </symbol>
          <symbol
             overflow="visible"
             id="textext-01568c3d-2">
            <path
               style="stroke:none;"
               d=""
               id="path7035" />
          </symbol>
          <symbol
             overflow="visible"
             id="textext-01568c3d-3">
            <path
               style="stroke:none;"
               d="M 3.515625 -1.265625 L 3.28125 -1.265625 C 3.265625 -1.109375 3.1875 -0.703125 3.09375 -0.640625 C 3.046875 -0.59375 2.515625 -0.59375 2.40625 -0.59375 L 1.125 -0.59375 C 1.859375 -1.234375 2.109375 -1.4375 2.515625 -1.765625 C 3.03125 -2.171875 3.515625 -2.609375 3.515625 -3.265625 C 3.515625 -4.109375 2.78125 -4.625 1.890625 -4.625 C 1.03125 -4.625 0.4375 -4.015625 0.4375 -3.375 C 0.4375 -3.03125 0.734375 -2.984375 0.8125 -2.984375 C 0.96875 -2.984375 1.171875 -3.109375 1.171875 -3.359375 C 1.171875 -3.484375 1.125 -3.734375 0.765625 -3.734375 C 0.984375 -4.21875 1.453125 -4.375 1.78125 -4.375 C 2.484375 -4.375 2.84375 -3.828125 2.84375 -3.265625 C 2.84375 -2.65625 2.40625 -2.1875 2.1875 -1.9375 L 0.515625 -0.265625 C 0.4375 -0.203125 0.4375 -0.1875 0.4375 0 L 3.3125 0 Z "
               id="path7038" />
          </symbol>
        </g>
      </defs>
      <g
         id="textext-01568c3d-4">
        <g
           style="fill:rgb(0%,0%,0%);fill-opacity:1;"
           id="g7041">
          <use
             xlink:href="#textext-01568c3d-1"
             x="223.432"
             y="134.765"
             id="use7043" />
        </g>
        <g
           style="fill:rgb(0%,0%,0%);fill-opacity:1;"
           id="g7045">
          <use
             xlink:href="#textext-01568c3d-3"
             x="229.244"
             y="136.259"
             id="use7047" />
        </g>
      </g>
    </g>
    <g
       id="g7635"
       transform="matrix(1.7723916,0,0,1.7723916,161.39345,206.48036)"
       ns0:preamble=""
       ns0:text="$V_3$">
      <defs
         id="defs7637">
        <g
           id="g7639">
          <symbol
             id="textext-dd5573be-0"
             overflow="visible">
            <path
               id="path7642"
               d=""
               style="stroke:none;" />
          </symbol>
          <symbol
             id="textext-dd5573be-1"
             overflow="visible">
            <path
               id="path7645"
               d="M 6.265625 -5.671875 C 6.75 -6.453125 7.171875 -6.484375 7.53125 -6.5 C 7.65625 -6.515625 7.671875 -6.671875 7.671875 -6.6875 C 7.671875 -6.765625 7.609375 -6.8125 7.53125 -6.8125 C 7.28125 -6.8125 6.984375 -6.78125 6.71875 -6.78125 C 6.390625 -6.78125 6.046875 -6.8125 5.734375 -6.8125 C 5.671875 -6.8125 5.546875 -6.8125 5.546875 -6.625 C 5.546875 -6.515625 5.625 -6.5 5.703125 -6.5 C 5.96875 -6.484375 6.15625 -6.375 6.15625 -6.171875 C 6.15625 -6.015625 6.015625 -5.796875 6.015625 -5.796875 L 2.953125 -0.921875 L 2.265625 -6.203125 C 2.265625 -6.375 2.5 -6.5 2.953125 -6.5 C 3.09375 -6.5 3.203125 -6.5 3.203125 -6.703125 C 3.203125 -6.78125 3.125 -6.8125 3.078125 -6.8125 C 2.671875 -6.8125 2.25 -6.78125 1.828125 -6.78125 C 1.65625 -6.78125 1.46875 -6.78125 1.28125 -6.78125 C 1.109375 -6.78125 0.921875 -6.8125 0.75 -6.8125 C 0.671875 -6.8125 0.5625 -6.8125 0.5625 -6.625 C 0.5625 -6.5 0.640625 -6.5 0.8125 -6.5 C 1.359375 -6.5 1.375 -6.40625 1.40625 -6.15625 L 2.1875 -0.015625 C 2.21875 0.1875 2.265625 0.21875 2.390625 0.21875 C 2.546875 0.21875 2.59375 0.171875 2.671875 0.046875 Z "
               style="stroke:none;" />
          </symbol>
          <symbol
             id="textext-dd5573be-2"
             overflow="visible">
            <path
               id="path7648"
               d=""
               style="stroke:none;" />
          </symbol>
          <symbol
             id="textext-dd5573be-3"
             overflow="visible">
            <path
               id="path7651"
               d="M 1.90625 -2.328125 C 2.453125 -2.328125 2.84375 -1.953125 2.84375 -1.203125 C 2.84375 -0.34375 2.328125 -0.078125 1.9375 -0.078125 C 1.65625 -0.078125 1.03125 -0.15625 0.75 -0.578125 C 1.078125 -0.578125 1.15625 -0.8125 1.15625 -0.96875 C 1.15625 -1.1875 0.984375 -1.34375 0.765625 -1.34375 C 0.578125 -1.34375 0.375 -1.21875 0.375 -0.9375 C 0.375 -0.28125 1.09375 0.140625 1.9375 0.140625 C 2.90625 0.140625 3.578125 -0.515625 3.578125 -1.203125 C 3.578125 -1.75 3.140625 -2.296875 2.375 -2.453125 C 3.09375 -2.71875 3.359375 -3.234375 3.359375 -3.671875 C 3.359375 -4.21875 2.734375 -4.625 1.953125 -4.625 C 1.1875 -4.625 0.59375 -4.25 0.59375 -3.6875 C 0.59375 -3.453125 0.75 -3.328125 0.953125 -3.328125 C 1.171875 -3.328125 1.3125 -3.484375 1.3125 -3.671875 C 1.3125 -3.875 1.171875 -4.03125 0.953125 -4.046875 C 1.203125 -4.34375 1.671875 -4.421875 1.9375 -4.421875 C 2.25 -4.421875 2.6875 -4.265625 2.6875 -3.671875 C 2.6875 -3.375 2.59375 -3.046875 2.40625 -2.84375 C 2.1875 -2.578125 1.984375 -2.5625 1.640625 -2.53125 C 1.46875 -2.515625 1.453125 -2.515625 1.421875 -2.515625 C 1.40625 -2.515625 1.34375 -2.5 1.34375 -2.421875 C 1.34375 -2.328125 1.40625 -2.328125 1.53125 -2.328125 Z "
               style="stroke:none;" />
          </symbol>
        </g>
      </defs>
      <g
         id="textext-dd5573be-4">
        <g
           id="g7654"
           style="fill:rgb(0%,0%,0%);fill-opacity:1;">
          <use
             id="use7656"
             y="134.765"
             x="223.432"
             xlink:href="#textext-dd5573be-1" />
        </g>
        <g
           id="g7658"
           style="fill:rgb(0%,0%,0%);fill-opacity:1;">
          <use
             id="use7660"
             y="136.259"
             x="229.244"
             xlink:href="#textext-dd5573be-3" />
        </g>
      </g>
    </g>
    <g
       ns0:text="$V_4$"
       ns0:preamble=""
       transform="matrix(1.7723916,0,0,1.7723916,-91.489293,201.80307)"
       id="g8248">
      <defs
         id="defs8250">
        <g
           id="g8252">
          <symbol
             overflow="visible"
             id="textext-d9cce0cb-0">
            <path
               style="stroke:none;"
               d=""
               id="path8255" />
          </symbol>
          <symbol
             overflow="visible"
             id="textext-d9cce0cb-1">
            <path
               style="stroke:none;"
               d="M 6.265625 -5.671875 C 6.75 -6.453125 7.171875 -6.484375 7.53125 -6.5 C 7.65625 -6.515625 7.671875 -6.671875 7.671875 -6.6875 C 7.671875 -6.765625 7.609375 -6.8125 7.53125 -6.8125 C 7.28125 -6.8125 6.984375 -6.78125 6.71875 -6.78125 C 6.390625 -6.78125 6.046875 -6.8125 5.734375 -6.8125 C 5.671875 -6.8125 5.546875 -6.8125 5.546875 -6.625 C 5.546875 -6.515625 5.625 -6.5 5.703125 -6.5 C 5.96875 -6.484375 6.15625 -6.375 6.15625 -6.171875 C 6.15625 -6.015625 6.015625 -5.796875 6.015625 -5.796875 L 2.953125 -0.921875 L 2.265625 -6.203125 C 2.265625 -6.375 2.5 -6.5 2.953125 -6.5 C 3.09375 -6.5 3.203125 -6.5 3.203125 -6.703125 C 3.203125 -6.78125 3.125 -6.8125 3.078125 -6.8125 C 2.671875 -6.8125 2.25 -6.78125 1.828125 -6.78125 C 1.65625 -6.78125 1.46875 -6.78125 1.28125 -6.78125 C 1.109375 -6.78125 0.921875 -6.8125 0.75 -6.8125 C 0.671875 -6.8125 0.5625 -6.8125 0.5625 -6.625 C 0.5625 -6.5 0.640625 -6.5 0.8125 -6.5 C 1.359375 -6.5 1.375 -6.40625 1.40625 -6.15625 L 2.1875 -0.015625 C 2.21875 0.1875 2.265625 0.21875 2.390625 0.21875 C 2.546875 0.21875 2.59375 0.171875 2.671875 0.046875 Z "
               id="path8258" />
          </symbol>
          <symbol
             overflow="visible"
             id="textext-d9cce0cb-2">
            <path
               style="stroke:none;"
               d=""
               id="path8261" />
          </symbol>
          <symbol
             overflow="visible"
             id="textext-d9cce0cb-3">
            <path
               style="stroke:none;"
               d="M 3.6875 -1.140625 L 3.6875 -1.390625 L 2.90625 -1.390625 L 2.90625 -4.5 C 2.90625 -4.640625 2.90625 -4.703125 2.765625 -4.703125 C 2.671875 -4.703125 2.640625 -4.703125 2.578125 -4.59375 L 0.265625 -1.390625 L 0.265625 -1.140625 L 2.328125 -1.140625 L 2.328125 -0.578125 C 2.328125 -0.328125 2.328125 -0.25 1.75 -0.25 L 1.5625 -0.25 L 1.5625 0 C 1.921875 -0.015625 2.359375 -0.03125 2.609375 -0.03125 C 2.875 -0.03125 3.3125 -0.015625 3.671875 0 L 3.671875 -0.25 L 3.484375 -0.25 C 2.90625 -0.25 2.90625 -0.328125 2.90625 -0.578125 L 2.90625 -1.140625 Z M 2.375 -3.9375 L 2.375 -1.390625 L 0.53125 -1.390625 Z "
               id="path8264" />
          </symbol>
        </g>
      </defs>
      <g
         id="textext-d9cce0cb-4">
        <g
           style="fill:rgb(0%,0%,0%);fill-opacity:1;"
           id="g8267">
          <use
             xlink:href="#textext-d9cce0cb-1"
             x="223.432"
             y="134.765"
             id="use8269" />
        </g>
        <g
           style="fill:rgb(0%,0%,0%);fill-opacity:1;"
           id="g8271">
          <use
             xlink:href="#textext-d9cce0cb-3"
             x="229.244"
             y="136.259"
             id="use8273" />
        </g>
      </g>
    </g>
    <g
       id="g8861"
       transform="matrix(1.7723916,0,0,1.7723916,-86.423811,55.187641)"
       ns0:preamble=""
       ns0:text="$V_1$">
      <defs
         id="defs8863">
        <g
           id="g8865">
          <symbol
             id="textext-04d4924c-0"
             overflow="visible">
            <path
               id="path8868"
               d=""
               style="stroke:none;" />
          </symbol>
          <symbol
             id="textext-04d4924c-1"
             overflow="visible">
            <path
               id="path8871"
               d="M 6.265625 -5.671875 C 6.75 -6.453125 7.171875 -6.484375 7.53125 -6.5 C 7.65625 -6.515625 7.671875 -6.671875 7.671875 -6.6875 C 7.671875 -6.765625 7.609375 -6.8125 7.53125 -6.8125 C 7.28125 -6.8125 6.984375 -6.78125 6.71875 -6.78125 C 6.390625 -6.78125 6.046875 -6.8125 5.734375 -6.8125 C 5.671875 -6.8125 5.546875 -6.8125 5.546875 -6.625 C 5.546875 -6.515625 5.625 -6.5 5.703125 -6.5 C 5.96875 -6.484375 6.15625 -6.375 6.15625 -6.171875 C 6.15625 -6.015625 6.015625 -5.796875 6.015625 -5.796875 L 2.953125 -0.921875 L 2.265625 -6.203125 C 2.265625 -6.375 2.5 -6.5 2.953125 -6.5 C 3.09375 -6.5 3.203125 -6.5 3.203125 -6.703125 C 3.203125 -6.78125 3.125 -6.8125 3.078125 -6.8125 C 2.671875 -6.8125 2.25 -6.78125 1.828125 -6.78125 C 1.65625 -6.78125 1.46875 -6.78125 1.28125 -6.78125 C 1.109375 -6.78125 0.921875 -6.8125 0.75 -6.8125 C 0.671875 -6.8125 0.5625 -6.8125 0.5625 -6.625 C 0.5625 -6.5 0.640625 -6.5 0.8125 -6.5 C 1.359375 -6.5 1.375 -6.40625 1.40625 -6.15625 L 2.1875 -0.015625 C 2.21875 0.1875 2.265625 0.21875 2.390625 0.21875 C 2.546875 0.21875 2.59375 0.171875 2.671875 0.046875 Z "
               style="stroke:none;" />
          </symbol>
          <symbol
             id="textext-04d4924c-2"
             overflow="visible">
            <path
               id="path8874"
               d=""
               style="stroke:none;" />
          </symbol>
          <symbol
             id="textext-04d4924c-3"
             overflow="visible">
            <path
               id="path8877"
               d="M 2.328125 -4.4375 C 2.328125 -4.625 2.328125 -4.625 2.125 -4.625 C 1.671875 -4.1875 1.046875 -4.1875 0.765625 -4.1875 L 0.765625 -3.9375 C 0.921875 -3.9375 1.390625 -3.9375 1.765625 -4.125 L 1.765625 -0.578125 C 1.765625 -0.34375 1.765625 -0.25 1.078125 -0.25 L 0.8125 -0.25 L 0.8125 0 C 0.9375 0 1.796875 -0.03125 2.046875 -0.03125 C 2.265625 -0.03125 3.140625 0 3.296875 0 L 3.296875 -0.25 L 3.03125 -0.25 C 2.328125 -0.25 2.328125 -0.34375 2.328125 -0.578125 Z "
               style="stroke:none;" />
          </symbol>
        </g>
      </defs>
      <g
         id="textext-04d4924c-4">
        <g
           id="g8880"
           style="fill:rgb(0%,0%,0%);fill-opacity:1;">
          <use
             id="use8882"
             y="134.765"
             x="223.432"
             xlink:href="#textext-04d4924c-1" />
        </g>
        <g
           id="g8884"
           style="fill:rgb(0%,0%,0%);fill-opacity:1;">
          <use
             id="use8886"
             y="136.259"
             x="229.244"
             xlink:href="#textext-04d4924c-3" />
        </g>
      </g>
    </g>
    <g
       ns0:text="$F_1$"
       ns0:preamble=""
       transform="matrix(1.7723916,0,0,1.7723916,-33.827731,132.27354)"
       id="g9474">
      <defs
         id="defs9476">
        <g
           id="g9478">
          <symbol
             overflow="visible"
             id="textext-78ff70c0-0">
            <path
               style="stroke:none;"
               d=""
               id="path9481" />
          </symbol>
          <symbol
             overflow="visible"
             id="textext-78ff70c0-1">
            <path
               style="stroke:none;"
               d="M 3.015625 -3.234375 L 3.984375 -3.234375 C 4.734375 -3.234375 4.8125 -3.078125 4.8125 -2.796875 C 4.8125 -2.71875 4.8125 -2.609375 4.75 -2.296875 C 4.71875 -2.25 4.71875 -2.21875 4.71875 -2.1875 C 4.71875 -2.109375 4.78125 -2.078125 4.828125 -2.078125 C 4.9375 -2.078125 4.9375 -2.109375 4.984375 -2.28125 L 5.53125 -4.453125 C 5.5625 -4.5625 5.5625 -4.578125 5.5625 -4.609375 C 5.5625 -4.625 5.546875 -4.71875 5.4375 -4.71875 C 5.34375 -4.71875 5.328125 -4.671875 5.296875 -4.5 C 5.078125 -3.734375 4.859375 -3.546875 4 -3.546875 L 3.09375 -3.546875 L 3.734375 -6.078125 C 3.828125 -6.4375 3.84375 -6.46875 4.28125 -6.46875 L 5.59375 -6.46875 C 6.8125 -6.46875 7.046875 -6.140625 7.046875 -5.375 C 7.046875 -5.140625 7.046875 -5.109375 7.015625 -4.828125 C 7 -4.703125 7 -4.6875 7 -4.65625 C 7 -4.609375 7.03125 -4.53125 7.125 -4.53125 C 7.234375 -4.53125 7.234375 -4.59375 7.25 -4.78125 L 7.453125 -6.515625 C 7.484375 -6.78125 7.4375 -6.78125 7.1875 -6.78125 L 2.296875 -6.78125 C 2.109375 -6.78125 2 -6.78125 2 -6.578125 C 2 -6.46875 2.09375 -6.46875 2.28125 -6.46875 C 2.65625 -6.46875 2.9375 -6.46875 2.9375 -6.296875 C 2.9375 -6.25 2.9375 -6.234375 2.875 -6.046875 L 1.5625 -0.78125 C 1.46875 -0.390625 1.453125 -0.3125 0.65625 -0.3125 C 0.484375 -0.3125 0.375 -0.3125 0.375 -0.125 C 0.375 0 0.5 0 0.53125 0 C 0.8125 0 1.5625 -0.03125 1.84375 -0.03125 C 2.171875 -0.03125 3 0 3.328125 0 C 3.421875 0 3.53125 0 3.53125 -0.1875 C 3.53125 -0.265625 3.484375 -0.296875 3.484375 -0.296875 C 3.453125 -0.3125 3.421875 -0.3125 3.203125 -0.3125 C 2.984375 -0.3125 2.9375 -0.3125 2.6875 -0.328125 C 2.390625 -0.359375 2.359375 -0.40625 2.359375 -0.53125 C 2.359375 -0.546875 2.359375 -0.609375 2.40625 -0.75 Z "
               id="path9484" />
          </symbol>
          <symbol
             overflow="visible"
             id="textext-78ff70c0-2">
            <path
               style="stroke:none;"
               d=""
               id="path9487" />
          </symbol>
          <symbol
             overflow="visible"
             id="textext-78ff70c0-3">
            <path
               style="stroke:none;"
               d="M 2.328125 -4.4375 C 2.328125 -4.625 2.328125 -4.625 2.125 -4.625 C 1.671875 -4.1875 1.046875 -4.1875 0.765625 -4.1875 L 0.765625 -3.9375 C 0.921875 -3.9375 1.390625 -3.9375 1.765625 -4.125 L 1.765625 -0.578125 C 1.765625 -0.34375 1.765625 -0.25 1.078125 -0.25 L 0.8125 -0.25 L 0.8125 0 C 0.9375 0 1.796875 -0.03125 2.046875 -0.03125 C 2.265625 -0.03125 3.140625 0 3.296875 0 L 3.296875 -0.25 L 3.03125 -0.25 C 2.328125 -0.25 2.328125 -0.34375 2.328125 -0.578125 Z "
               id="path9490" />
          </symbol>
        </g>
      </defs>
      <g
         id="textext-78ff70c0-4">
        <g
           style="fill:rgb(0%,0%,0%);fill-opacity:1;"
           id="g9493">
          <use
             xlink:href="#textext-78ff70c0-1"
             x="223.432"
             y="134.765"
             id="use9495" />
        </g>
        <g
           style="fill:rgb(0%,0%,0%);fill-opacity:1;"
           id="g9497">
          <use
             xlink:href="#textext-78ff70c0-3"
             x="229.839"
             y="136.259"
             id="use9499" />
        </g>
      </g>
    </g>
    <g
       id="g10087"
       transform="matrix(1.7723916,0,0,1.7723916,37.001923,92.214927)"
       ns0:preamble=""
       ns0:text="$F_2$">
      <defs
         id="defs10089">
        <g
           id="g10091">
          <symbol
             id="textext-26e50cde-0"
             overflow="visible">
            <path
               id="path10094"
               d=""
               style="stroke:none;" />
          </symbol>
          <symbol
             id="textext-26e50cde-1"
             overflow="visible">
            <path
               id="path10097"
               d="M 3.015625 -3.234375 L 3.984375 -3.234375 C 4.734375 -3.234375 4.8125 -3.078125 4.8125 -2.796875 C 4.8125 -2.71875 4.8125 -2.609375 4.75 -2.296875 C 4.71875 -2.25 4.71875 -2.21875 4.71875 -2.1875 C 4.71875 -2.109375 4.78125 -2.078125 4.828125 -2.078125 C 4.9375 -2.078125 4.9375 -2.109375 4.984375 -2.28125 L 5.53125 -4.453125 C 5.5625 -4.5625 5.5625 -4.578125 5.5625 -4.609375 C 5.5625 -4.625 5.546875 -4.71875 5.4375 -4.71875 C 5.34375 -4.71875 5.328125 -4.671875 5.296875 -4.5 C 5.078125 -3.734375 4.859375 -3.546875 4 -3.546875 L 3.09375 -3.546875 L 3.734375 -6.078125 C 3.828125 -6.4375 3.84375 -6.46875 4.28125 -6.46875 L 5.59375 -6.46875 C 6.8125 -6.46875 7.046875 -6.140625 7.046875 -5.375 C 7.046875 -5.140625 7.046875 -5.109375 7.015625 -4.828125 C 7 -4.703125 7 -4.6875 7 -4.65625 C 7 -4.609375 7.03125 -4.53125 7.125 -4.53125 C 7.234375 -4.53125 7.234375 -4.59375 7.25 -4.78125 L 7.453125 -6.515625 C 7.484375 -6.78125 7.4375 -6.78125 7.1875 -6.78125 L 2.296875 -6.78125 C 2.109375 -6.78125 2 -6.78125 2 -6.578125 C 2 -6.46875 2.09375 -6.46875 2.28125 -6.46875 C 2.65625 -6.46875 2.9375 -6.46875 2.9375 -6.296875 C 2.9375 -6.25 2.9375 -6.234375 2.875 -6.046875 L 1.5625 -0.78125 C 1.46875 -0.390625 1.453125 -0.3125 0.65625 -0.3125 C 0.484375 -0.3125 0.375 -0.3125 0.375 -0.125 C 0.375 0 0.5 0 0.53125 0 C 0.8125 0 1.5625 -0.03125 1.84375 -0.03125 C 2.171875 -0.03125 3 0 3.328125 0 C 3.421875 0 3.53125 0 3.53125 -0.1875 C 3.53125 -0.265625 3.484375 -0.296875 3.484375 -0.296875 C 3.453125 -0.3125 3.421875 -0.3125 3.203125 -0.3125 C 2.984375 -0.3125 2.9375 -0.3125 2.6875 -0.328125 C 2.390625 -0.359375 2.359375 -0.40625 2.359375 -0.53125 C 2.359375 -0.546875 2.359375 -0.609375 2.40625 -0.75 Z "
               style="stroke:none;" />
          </symbol>
          <symbol
             id="textext-26e50cde-2"
             overflow="visible">
            <path
               id="path10100"
               d=""
               style="stroke:none;" />
          </symbol>
          <symbol
             id="textext-26e50cde-3"
             overflow="visible">
            <path
               id="path10103"
               d="M 3.515625 -1.265625 L 3.28125 -1.265625 C 3.265625 -1.109375 3.1875 -0.703125 3.09375 -0.640625 C 3.046875 -0.59375 2.515625 -0.59375 2.40625 -0.59375 L 1.125 -0.59375 C 1.859375 -1.234375 2.109375 -1.4375 2.515625 -1.765625 C 3.03125 -2.171875 3.515625 -2.609375 3.515625 -3.265625 C 3.515625 -4.109375 2.78125 -4.625 1.890625 -4.625 C 1.03125 -4.625 0.4375 -4.015625 0.4375 -3.375 C 0.4375 -3.03125 0.734375 -2.984375 0.8125 -2.984375 C 0.96875 -2.984375 1.171875 -3.109375 1.171875 -3.359375 C 1.171875 -3.484375 1.125 -3.734375 0.765625 -3.734375 C 0.984375 -4.21875 1.453125 -4.375 1.78125 -4.375 C 2.484375 -4.375 2.84375 -3.828125 2.84375 -3.265625 C 2.84375 -2.65625 2.40625 -2.1875 2.1875 -1.9375 L 0.515625 -0.265625 C 0.4375 -0.203125 0.4375 -0.1875 0.4375 0 L 3.3125 0 Z "
               style="stroke:none;" />
          </symbol>
        </g>
      </defs>
      <g
         id="textext-26e50cde-4">
        <g
           id="g10106"
           style="fill:rgb(0%,0%,0%);fill-opacity:1;">
          <use
             id="use10108"
             y="134.765"
             x="223.432"
             xlink:href="#textext-26e50cde-1" />
        </g>
        <g
           id="g10110"
           style="fill:rgb(0%,0%,0%);fill-opacity:1;">
          <use
             id="use10112"
             y="136.259"
             x="229.839"
             xlink:href="#textext-26e50cde-3" />
        </g>
      </g>
    </g>
    <g
       ns0:text="$F_4$"
       ns0:preamble=""
       transform="matrix(1.7723916,0,0,1.7723916,37.895379,167.96073)"
       id="g10700">
      <defs
         id="defs10702">
        <g
           id="g10704">
          <symbol
             overflow="visible"
             id="textext-21ff64fc-0">
            <path
               style="stroke:none;"
               d=""
               id="path10707" />
          </symbol>
          <symbol
             overflow="visible"
             id="textext-21ff64fc-1">
            <path
               style="stroke:none;"
               d="M 3.015625 -3.234375 L 3.984375 -3.234375 C 4.734375 -3.234375 4.8125 -3.078125 4.8125 -2.796875 C 4.8125 -2.71875 4.8125 -2.609375 4.75 -2.296875 C 4.71875 -2.25 4.71875 -2.21875 4.71875 -2.1875 C 4.71875 -2.109375 4.78125 -2.078125 4.828125 -2.078125 C 4.9375 -2.078125 4.9375 -2.109375 4.984375 -2.28125 L 5.53125 -4.453125 C 5.5625 -4.5625 5.5625 -4.578125 5.5625 -4.609375 C 5.5625 -4.625 5.546875 -4.71875 5.4375 -4.71875 C 5.34375 -4.71875 5.328125 -4.671875 5.296875 -4.5 C 5.078125 -3.734375 4.859375 -3.546875 4 -3.546875 L 3.09375 -3.546875 L 3.734375 -6.078125 C 3.828125 -6.4375 3.84375 -6.46875 4.28125 -6.46875 L 5.59375 -6.46875 C 6.8125 -6.46875 7.046875 -6.140625 7.046875 -5.375 C 7.046875 -5.140625 7.046875 -5.109375 7.015625 -4.828125 C 7 -4.703125 7 -4.6875 7 -4.65625 C 7 -4.609375 7.03125 -4.53125 7.125 -4.53125 C 7.234375 -4.53125 7.234375 -4.59375 7.25 -4.78125 L 7.453125 -6.515625 C 7.484375 -6.78125 7.4375 -6.78125 7.1875 -6.78125 L 2.296875 -6.78125 C 2.109375 -6.78125 2 -6.78125 2 -6.578125 C 2 -6.46875 2.09375 -6.46875 2.28125 -6.46875 C 2.65625 -6.46875 2.9375 -6.46875 2.9375 -6.296875 C 2.9375 -6.25 2.9375 -6.234375 2.875 -6.046875 L 1.5625 -0.78125 C 1.46875 -0.390625 1.453125 -0.3125 0.65625 -0.3125 C 0.484375 -0.3125 0.375 -0.3125 0.375 -0.125 C 0.375 0 0.5 0 0.53125 0 C 0.8125 0 1.5625 -0.03125 1.84375 -0.03125 C 2.171875 -0.03125 3 0 3.328125 0 C 3.421875 0 3.53125 0 3.53125 -0.1875 C 3.53125 -0.265625 3.484375 -0.296875 3.484375 -0.296875 C 3.453125 -0.3125 3.421875 -0.3125 3.203125 -0.3125 C 2.984375 -0.3125 2.9375 -0.3125 2.6875 -0.328125 C 2.390625 -0.359375 2.359375 -0.40625 2.359375 -0.53125 C 2.359375 -0.546875 2.359375 -0.609375 2.40625 -0.75 Z "
               id="path10710" />
          </symbol>
          <symbol
             overflow="visible"
             id="textext-21ff64fc-2">
            <path
               style="stroke:none;"
               d=""
               id="path10713" />
          </symbol>
          <symbol
             overflow="visible"
             id="textext-21ff64fc-3">
            <path
               style="stroke:none;"
               d="M 3.6875 -1.140625 L 3.6875 -1.390625 L 2.90625 -1.390625 L 2.90625 -4.5 C 2.90625 -4.640625 2.90625 -4.703125 2.765625 -4.703125 C 2.671875 -4.703125 2.640625 -4.703125 2.578125 -4.59375 L 0.265625 -1.390625 L 0.265625 -1.140625 L 2.328125 -1.140625 L 2.328125 -0.578125 C 2.328125 -0.328125 2.328125 -0.25 1.75 -0.25 L 1.5625 -0.25 L 1.5625 0 C 1.921875 -0.015625 2.359375 -0.03125 2.609375 -0.03125 C 2.875 -0.03125 3.3125 -0.015625 3.671875 0 L 3.671875 -0.25 L 3.484375 -0.25 C 2.90625 -0.25 2.90625 -0.328125 2.90625 -0.578125 L 2.90625 -1.140625 Z M 2.375 -3.9375 L 2.375 -1.390625 L 0.53125 -1.390625 Z "
               id="path10716" />
          </symbol>
        </g>
      </defs>
      <g
         id="textext-21ff64fc-4">
        <g
           style="fill:rgb(0%,0%,0%);fill-opacity:1;"
           id="g10719">
          <use
             xlink:href="#textext-21ff64fc-1"
             x="223.432"
             y="134.765"
             id="use10721" />
        </g>
        <g
           style="fill:rgb(0%,0%,0%);fill-opacity:1;"
           id="g10723">
          <use
             xlink:href="#textext-21ff64fc-3"
             x="229.839"
             y="136.259"
             id="use10725" />
        </g>
      </g>
    </g>
    <g
       id="g11313"
       transform="matrix(1.7723916,0,0,1.7723916,103.55015,126.52308)"
       ns0:preamble=""
       ns0:text="$F_3$">
      <defs
         id="defs11315">
        <g
           id="g11317">
          <symbol
             id="textext-d05f5043-0"
             overflow="visible">
            <path
               id="path11320"
               d=""
               style="stroke:none;" />
          </symbol>
          <symbol
             id="textext-d05f5043-1"
             overflow="visible">
            <path
               id="path11323"
               d="M 3.015625 -3.234375 L 3.984375 -3.234375 C 4.734375 -3.234375 4.8125 -3.078125 4.8125 -2.796875 C 4.8125 -2.71875 4.8125 -2.609375 4.75 -2.296875 C 4.71875 -2.25 4.71875 -2.21875 4.71875 -2.1875 C 4.71875 -2.109375 4.78125 -2.078125 4.828125 -2.078125 C 4.9375 -2.078125 4.9375 -2.109375 4.984375 -2.28125 L 5.53125 -4.453125 C 5.5625 -4.5625 5.5625 -4.578125 5.5625 -4.609375 C 5.5625 -4.625 5.546875 -4.71875 5.4375 -4.71875 C 5.34375 -4.71875 5.328125 -4.671875 5.296875 -4.5 C 5.078125 -3.734375 4.859375 -3.546875 4 -3.546875 L 3.09375 -3.546875 L 3.734375 -6.078125 C 3.828125 -6.4375 3.84375 -6.46875 4.28125 -6.46875 L 5.59375 -6.46875 C 6.8125 -6.46875 7.046875 -6.140625 7.046875 -5.375 C 7.046875 -5.140625 7.046875 -5.109375 7.015625 -4.828125 C 7 -4.703125 7 -4.6875 7 -4.65625 C 7 -4.609375 7.03125 -4.53125 7.125 -4.53125 C 7.234375 -4.53125 7.234375 -4.59375 7.25 -4.78125 L 7.453125 -6.515625 C 7.484375 -6.78125 7.4375 -6.78125 7.1875 -6.78125 L 2.296875 -6.78125 C 2.109375 -6.78125 2 -6.78125 2 -6.578125 C 2 -6.46875 2.09375 -6.46875 2.28125 -6.46875 C 2.65625 -6.46875 2.9375 -6.46875 2.9375 -6.296875 C 2.9375 -6.25 2.9375 -6.234375 2.875 -6.046875 L 1.5625 -0.78125 C 1.46875 -0.390625 1.453125 -0.3125 0.65625 -0.3125 C 0.484375 -0.3125 0.375 -0.3125 0.375 -0.125 C 0.375 0 0.5 0 0.53125 0 C 0.8125 0 1.5625 -0.03125 1.84375 -0.03125 C 2.171875 -0.03125 3 0 3.328125 0 C 3.421875 0 3.53125 0 3.53125 -0.1875 C 3.53125 -0.265625 3.484375 -0.296875 3.484375 -0.296875 C 3.453125 -0.3125 3.421875 -0.3125 3.203125 -0.3125 C 2.984375 -0.3125 2.9375 -0.3125 2.6875 -0.328125 C 2.390625 -0.359375 2.359375 -0.40625 2.359375 -0.53125 C 2.359375 -0.546875 2.359375 -0.609375 2.40625 -0.75 Z "
               style="stroke:none;" />
          </symbol>
          <symbol
             id="textext-d05f5043-2"
             overflow="visible">
            <path
               id="path11326"
               d=""
               style="stroke:none;" />
          </symbol>
          <symbol
             id="textext-d05f5043-3"
             overflow="visible">
            <path
               id="path11329"
               d="M 1.90625 -2.328125 C 2.453125 -2.328125 2.84375 -1.953125 2.84375 -1.203125 C 2.84375 -0.34375 2.328125 -0.078125 1.9375 -0.078125 C 1.65625 -0.078125 1.03125 -0.15625 0.75 -0.578125 C 1.078125 -0.578125 1.15625 -0.8125 1.15625 -0.96875 C 1.15625 -1.1875 0.984375 -1.34375 0.765625 -1.34375 C 0.578125 -1.34375 0.375 -1.21875 0.375 -0.9375 C 0.375 -0.28125 1.09375 0.140625 1.9375 0.140625 C 2.90625 0.140625 3.578125 -0.515625 3.578125 -1.203125 C 3.578125 -1.75 3.140625 -2.296875 2.375 -2.453125 C 3.09375 -2.71875 3.359375 -3.234375 3.359375 -3.671875 C 3.359375 -4.21875 2.734375 -4.625 1.953125 -4.625 C 1.1875 -4.625 0.59375 -4.25 0.59375 -3.6875 C 0.59375 -3.453125 0.75 -3.328125 0.953125 -3.328125 C 1.171875 -3.328125 1.3125 -3.484375 1.3125 -3.671875 C 1.3125 -3.875 1.171875 -4.03125 0.953125 -4.046875 C 1.203125 -4.34375 1.671875 -4.421875 1.9375 -4.421875 C 2.25 -4.421875 2.6875 -4.265625 2.6875 -3.671875 C 2.6875 -3.375 2.59375 -3.046875 2.40625 -2.84375 C 2.1875 -2.578125 1.984375 -2.5625 1.640625 -2.53125 C 1.46875 -2.515625 1.453125 -2.515625 1.421875 -2.515625 C 1.40625 -2.515625 1.34375 -2.5 1.34375 -2.421875 C 1.34375 -2.328125 1.40625 -2.328125 1.53125 -2.328125 Z "
               style="stroke:none;" />
          </symbol>
        </g>
      </defs>
      <g
         id="textext-d05f5043-4">
        <g
           id="g11332"
           style="fill:rgb(0%,0%,0%);fill-opacity:1;">
          <use
             id="use11334"
             y="134.765"
             x="223.432"
             xlink:href="#textext-d05f5043-1" />
        </g>
        <g
           id="g11336"
           style="fill:rgb(0%,0%,0%);fill-opacity:1;">
          <use
             id="use11338"
             y="136.259"
             x="229.839"
             xlink:href="#textext-d05f5043-3" />
        </g>
      </g>
    </g>
    <g
       ns0:text="$V_6$"
       ns0:preamble=""
       transform="matrix(1.7723916,0,0,1.7723916,58.724942,93.284111)"
       id="g11926">
      <defs
         id="defs11928">
        <g
           id="g11930">
          <symbol
             overflow="visible"
             id="textext-9ab0a2fe-0">
            <path
               style="stroke:none;"
               d=""
               id="path11933" />
          </symbol>
          <symbol
             overflow="visible"
             id="textext-9ab0a2fe-1">
            <path
               style="stroke:none;"
               d="M 6.265625 -5.671875 C 6.75 -6.453125 7.171875 -6.484375 7.53125 -6.5 C 7.65625 -6.515625 7.671875 -6.671875 7.671875 -6.6875 C 7.671875 -6.765625 7.609375 -6.8125 7.53125 -6.8125 C 7.28125 -6.8125 6.984375 -6.78125 6.71875 -6.78125 C 6.390625 -6.78125 6.046875 -6.8125 5.734375 -6.8125 C 5.671875 -6.8125 5.546875 -6.8125 5.546875 -6.625 C 5.546875 -6.515625 5.625 -6.5 5.703125 -6.5 C 5.96875 -6.484375 6.15625 -6.375 6.15625 -6.171875 C 6.15625 -6.015625 6.015625 -5.796875 6.015625 -5.796875 L 2.953125 -0.921875 L 2.265625 -6.203125 C 2.265625 -6.375 2.5 -6.5 2.953125 -6.5 C 3.09375 -6.5 3.203125 -6.5 3.203125 -6.703125 C 3.203125 -6.78125 3.125 -6.8125 3.078125 -6.8125 C 2.671875 -6.8125 2.25 -6.78125 1.828125 -6.78125 C 1.65625 -6.78125 1.46875 -6.78125 1.28125 -6.78125 C 1.109375 -6.78125 0.921875 -6.8125 0.75 -6.8125 C 0.671875 -6.8125 0.5625 -6.8125 0.5625 -6.625 C 0.5625 -6.5 0.640625 -6.5 0.8125 -6.5 C 1.359375 -6.5 1.375 -6.40625 1.40625 -6.15625 L 2.1875 -0.015625 C 2.21875 0.1875 2.265625 0.21875 2.390625 0.21875 C 2.546875 0.21875 2.59375 0.171875 2.671875 0.046875 Z "
               id="path11936" />
          </symbol>
          <symbol
             overflow="visible"
             id="textext-9ab0a2fe-2">
            <path
               style="stroke:none;"
               d=""
               id="path11939" />
          </symbol>
          <symbol
             overflow="visible"
             id="textext-9ab0a2fe-3">
            <path
               style="stroke:none;"
               d="M 1.046875 -2.28125 C 1.046875 -2.84375 1.09375 -3.359375 1.359375 -3.796875 C 1.59375 -4.171875 1.96875 -4.421875 2.421875 -4.421875 C 2.625 -4.421875 2.90625 -4.375 3.046875 -4.1875 C 2.875 -4.171875 2.71875 -4.046875 2.71875 -3.84375 C 2.71875 -3.671875 2.84375 -3.515625 3.046875 -3.515625 C 3.265625 -3.515625 3.390625 -3.65625 3.390625 -3.859375 C 3.390625 -4.265625 3.09375 -4.625 2.40625 -4.625 C 1.40625 -4.625 0.375 -3.703125 0.375 -2.203125 C 0.375 -0.40625 1.21875 0.140625 2 0.140625 C 2.84375 0.140625 3.578125 -0.515625 3.578125 -1.421875 C 3.578125 -2.3125 2.875 -2.96875 2.0625 -2.96875 C 1.5 -2.96875 1.203125 -2.59375 1.046875 -2.28125 Z M 2 -0.078125 C 1.640625 -0.078125 1.375 -0.28125 1.21875 -0.59375 C 1.125 -0.796875 1.0625 -1.15625 1.0625 -1.5625 C 1.0625 -2.25 1.46875 -2.765625 2.03125 -2.765625 C 2.34375 -2.765625 2.5625 -2.640625 2.734375 -2.390625 C 2.90625 -2.125 2.90625 -1.828125 2.90625 -1.421875 C 2.90625 -1.03125 2.90625 -0.734375 2.71875 -0.453125 C 2.5625 -0.21875 2.328125 -0.078125 2 -0.078125 Z "
               id="path11942" />
          </symbol>
        </g>
      </defs>
      <g
         id="textext-9ab0a2fe-4">
        <g
           style="fill:rgb(0%,0%,0%);fill-opacity:1;"
           id="g11945">
          <use
             xlink:href="#textext-9ab0a2fe-1"
             x="223.432"
             y="134.765"
             id="use11947" />
        </g>
        <g
           style="fill:rgb(0%,0%,0%);fill-opacity:1;"
           id="g11949">
          <use
             xlink:href="#textext-9ab0a2fe-3"
             x="229.244"
             y="136.259"
             id="use11951" />
        </g>
      </g>
    </g>
    <g
       id="g12539"
       transform="matrix(1.7723916,0,0,1.7723916,60.366716,169.25119)"
       ns0:preamble=""
       ns0:text="$V_7$">
      <defs
         id="defs12541">
        <g
           id="g12543">
          <symbol
             id="textext-32713f7d-0"
             overflow="visible"
             style="overflow:visible">
            <path
               id="path12546"
               d=""
               style="stroke:none"
               inkscape:connector-curvature="0" />
          </symbol>
          <symbol
             id="textext-32713f7d-1"
             overflow="visible"
             style="overflow:visible">
            <path
               id="path12549"
               d="M 6.265625,-5.671875 C 6.75,-6.453125 7.171875,-6.484375 7.53125,-6.5 c 0.125,-0.015625 0.140625,-0.171875 0.140625,-0.1875 0,-0.078125 -0.0625,-0.125 -0.140625,-0.125 -0.25,0 -0.546875,0.03125 -0.8125,0.03125 -0.328125,0 -0.671875,-0.03125 -0.984375,-0.03125 -0.0625,0 -0.1875,0 -0.1875,0.1875 0,0.109375 0.078125,0.125 0.15625,0.125 0.265625,0.015625 0.453125,0.125 0.453125,0.328125 0,0.15625 -0.140625,0.375 -0.140625,0.375 l -3.0625,4.875 -0.6875,-5.28125 C 2.265625,-6.375 2.5,-6.5 2.953125,-6.5 c 0.140625,0 0.25,0 0.25,-0.203125 0,-0.078125 -0.078125,-0.109375 -0.125,-0.109375 -0.40625,0 -0.828125,0.03125 -1.25,0.03125 -0.171875,0 -0.359375,0 -0.546875,0 -0.171875,0 -0.359375,-0.03125 -0.53125,-0.03125 -0.078125,0 -0.1875,0 -0.1875,0.1875 0,0.125 0.078125,0.125 0.25,0.125 0.546875,0 0.5625,0.09375 0.59375,0.34375 L 2.1875,-0.015625 C 2.21875,0.1875 2.265625,0.21875 2.390625,0.21875 c 0.15625,0 0.203125,-0.046875 0.28125,-0.171875 z"
               style="stroke:none"
               inkscape:connector-curvature="0" />
          </symbol>
          <symbol
             id="textext-32713f7d-2"
             overflow="visible"
             style="overflow:visible">
            <path
               id="path12552"
               d=""
               style="stroke:none"
               inkscape:connector-curvature="0" />
          </symbol>
          <symbol
             id="textext-32713f7d-3"
             overflow="visible"
             style="overflow:visible">
            <path
               id="path12555"
               d="m 3.734375,-4.203125 c 0.0625,-0.09375 0.0625,-0.109375 0.0625,-0.28125 l -1.828125,0 C 1.6875,-4.484375 1.609375,-4.5 1.359375,-4.515625 1,-4.546875 0.984375,-4.59375 0.96875,-4.703125 l -0.234375,0 -0.25,1.484375 0.234375,0 c 0.015625,-0.109375 0.09375,-0.5625 0.203125,-0.640625 0.046875,-0.03125 0.625,-0.03125 0.71875,-0.03125 l 1.515625,0 c -0.21875,0.28125 -0.578125,0.71875 -0.71875,0.921875 -0.90625,1.1875 -1,2.296875 -1,2.703125 0,0.078125 0,0.40625 0.328125,0.40625 0.34375,0 0.34375,-0.3125 0.34375,-0.40625 l 0,-0.28125 c 0,-1.34375 0.28125,-1.96875 0.578125,-2.34375 z"
               style="stroke:none"
               inkscape:connector-curvature="0" />
          </symbol>
        </g>
      </defs>
      <g
         id="textext-32713f7d-4">
        <g
           id="g12558"
           style="fill:#000000;fill-opacity:1">
          <use
             id="use12560"
             y="134.765"
             x="223.43201"
             xlink:href="#textext-32713f7d-1"
             width="744.09448"
             height="1052.3622" />
        </g>
        <g
           id="g12562"
           style="fill:#000000;fill-opacity:1">
          <use
             id="use12564"
             y="136.259"
             x="229.244"
             xlink:href="#textext-32713f7d-3"
             width="744.09448"
             height="1052.3622" />
        </g>
      </g>
    </g>
    <g
       ns0:text="$V_8$"
       ns0:preamble=""
       transform="matrix(1.7723916,0,0,1.7723916,11.431941,166.42715)"
       id="g13152">
      <defs
         id="defs13154">
        <g
           id="g13156">
          <symbol
             overflow="visible"
             id="textext-61fdbe1d-0">
            <path
               style="stroke:none;"
               d=""
               id="path13159" />
          </symbol>
          <symbol
             overflow="visible"
             id="textext-61fdbe1d-1">
            <path
               style="stroke:none;"
               d="M 6.265625 -5.671875 C 6.75 -6.453125 7.171875 -6.484375 7.53125 -6.5 C 7.65625 -6.515625 7.671875 -6.671875 7.671875 -6.6875 C 7.671875 -6.765625 7.609375 -6.8125 7.53125 -6.8125 C 7.28125 -6.8125 6.984375 -6.78125 6.71875 -6.78125 C 6.390625 -6.78125 6.046875 -6.8125 5.734375 -6.8125 C 5.671875 -6.8125 5.546875 -6.8125 5.546875 -6.625 C 5.546875 -6.515625 5.625 -6.5 5.703125 -6.5 C 5.96875 -6.484375 6.15625 -6.375 6.15625 -6.171875 C 6.15625 -6.015625 6.015625 -5.796875 6.015625 -5.796875 L 2.953125 -0.921875 L 2.265625 -6.203125 C 2.265625 -6.375 2.5 -6.5 2.953125 -6.5 C 3.09375 -6.5 3.203125 -6.5 3.203125 -6.703125 C 3.203125 -6.78125 3.125 -6.8125 3.078125 -6.8125 C 2.671875 -6.8125 2.25 -6.78125 1.828125 -6.78125 C 1.65625 -6.78125 1.46875 -6.78125 1.28125 -6.78125 C 1.109375 -6.78125 0.921875 -6.8125 0.75 -6.8125 C 0.671875 -6.8125 0.5625 -6.8125 0.5625 -6.625 C 0.5625 -6.5 0.640625 -6.5 0.8125 -6.5 C 1.359375 -6.5 1.375 -6.40625 1.40625 -6.15625 L 2.1875 -0.015625 C 2.21875 0.1875 2.265625 0.21875 2.390625 0.21875 C 2.546875 0.21875 2.59375 0.171875 2.671875 0.046875 Z "
               id="path13162" />
          </symbol>
          <symbol
             overflow="visible"
             id="textext-61fdbe1d-2">
            <path
               style="stroke:none;"
               d=""
               id="path13165" />
          </symbol>
          <symbol
             overflow="visible"
             id="textext-61fdbe1d-3">
            <path
               style="stroke:none;"
               d="M 2.46875 -2.515625 C 3.015625 -2.78125 3.359375 -3.109375 3.359375 -3.59375 C 3.359375 -4.265625 2.65625 -4.625 1.984375 -4.625 C 1.21875 -4.625 0.59375 -4.125 0.59375 -3.46875 C 0.59375 -3.140625 0.75 -2.90625 0.875 -2.765625 C 1 -2.609375 1.046875 -2.578125 1.453125 -2.34375 C 1.0625 -2.171875 0.375 -1.796875 0.375 -1.0625 C 0.375 -0.296875 1.171875 0.140625 1.96875 0.140625 C 2.859375 0.140625 3.578125 -0.421875 3.578125 -1.171875 C 3.578125 -1.640625 3.3125 -2.03125 2.90625 -2.265625 C 2.8125 -2.328125 2.578125 -2.453125 2.46875 -2.515625 Z M 1.34375 -3.171875 C 1.15625 -3.28125 0.96875 -3.46875 0.96875 -3.734375 C 0.96875 -4.171875 1.46875 -4.421875 1.96875 -4.421875 C 2.515625 -4.421875 3 -4.078125 3 -3.59375 C 3 -2.96875 2.265625 -2.65625 2.265625 -2.65625 C 2.25 -2.65625 2.234375 -2.65625 2.1875 -2.6875 Z M 1.671875 -2.203125 L 2.640625 -1.65625 C 2.8125 -1.546875 3.15625 -1.34375 3.15625 -0.9375 C 3.15625 -0.40625 2.578125 -0.078125 1.984375 -0.078125 C 1.34375 -0.078125 0.796875 -0.5 0.796875 -1.0625 C 0.796875 -1.578125 1.171875 -1.984375 1.671875 -2.203125 Z "
               id="path13168" />
          </symbol>
        </g>
      </defs>
      <g
         id="textext-61fdbe1d-4">
        <g
           style="fill:rgb(0%,0%,0%);fill-opacity:1;"
           id="g13171">
          <use
             xlink:href="#textext-61fdbe1d-1"
             x="223.432"
             y="134.765"
             id="use13173" />
        </g>
        <g
           style="fill:rgb(0%,0%,0%);fill-opacity:1;"
           id="g13175">
          <use
             xlink:href="#textext-61fdbe1d-3"
             x="229.244"
             y="136.259"
             id="use13177" />
        </g>
      </g>
    </g>
    <g
       id="g13765"
       transform="matrix(1.7723916,0,0,1.7723916,11.838918,95.745871)"
       ns0:preamble=""
       ns0:text="$V_5$">
      <defs
         id="defs13767">
        <g
           id="g13769">
          <symbol
             id="textext-5827da33-0"
             overflow="visible"
             style="overflow:visible">
            <path
               id="path13772"
               d=""
               style="stroke:none"
               inkscape:connector-curvature="0" />
          </symbol>
          <symbol
             id="textext-5827da33-1"
             overflow="visible"
             style="overflow:visible">
            <path
               id="path13775"
               d="M 6.265625,-5.671875 C 6.75,-6.453125 7.171875,-6.484375 7.53125,-6.5 c 0.125,-0.015625 0.140625,-0.171875 0.140625,-0.1875 0,-0.078125 -0.0625,-0.125 -0.140625,-0.125 -0.25,0 -0.546875,0.03125 -0.8125,0.03125 -0.328125,0 -0.671875,-0.03125 -0.984375,-0.03125 -0.0625,0 -0.1875,0 -0.1875,0.1875 0,0.109375 0.078125,0.125 0.15625,0.125 0.265625,0.015625 0.453125,0.125 0.453125,0.328125 0,0.15625 -0.140625,0.375 -0.140625,0.375 l -3.0625,4.875 -0.6875,-5.28125 C 2.265625,-6.375 2.5,-6.5 2.953125,-6.5 c 0.140625,0 0.25,0 0.25,-0.203125 0,-0.078125 -0.078125,-0.109375 -0.125,-0.109375 -0.40625,0 -0.828125,0.03125 -1.25,0.03125 -0.171875,0 -0.359375,0 -0.546875,0 -0.171875,0 -0.359375,-0.03125 -0.53125,-0.03125 -0.078125,0 -0.1875,0 -0.1875,0.1875 0,0.125 0.078125,0.125 0.25,0.125 0.546875,0 0.5625,0.09375 0.59375,0.34375 L 2.1875,-0.015625 C 2.21875,0.1875 2.265625,0.21875 2.390625,0.21875 c 0.15625,0 0.203125,-0.046875 0.28125,-0.171875 z"
               style="stroke:none"
               inkscape:connector-curvature="0" />
          </symbol>
          <symbol
             id="textext-5827da33-2"
             overflow="visible"
             style="overflow:visible">
            <path
               id="path13778"
               d=""
               style="stroke:none"
               inkscape:connector-curvature="0" />
          </symbol>
          <symbol
             id="textext-5827da33-3"
             overflow="visible"
             style="overflow:visible">
            <path
               id="path13781"
               d="m 1.078125,-3.890625 c 0.359375,0.09375 0.5625,0.09375 0.671875,0.09375 0.921875,0 1.46875,-0.625 1.46875,-0.734375 0,-0.078125 -0.046875,-0.09375 -0.078125,-0.09375 -0.015625,0 -0.03125,0 -0.0625,0.015625 -0.171875,0.0625 -0.53125,0.203125 -1.046875,0.203125 -0.203125,0 -0.5625,-0.015625 -1.015625,-0.1875 C 0.9375,-4.625 0.921875,-4.625 0.921875,-4.625 c -0.09375,0 -0.09375,0.078125 -0.09375,0.1875 l 0,2.046875 c 0,0.125 0,0.203125 0.109375,0.203125 0.0625,0 0.078125,0 0.140625,-0.09375 0.296875,-0.375 0.734375,-0.4375 0.96875,-0.4375 0.421875,0 0.609375,0.328125 0.640625,0.390625 0.125,0.234375 0.171875,0.5 0.171875,0.90625 0,0.203125 0,0.609375 -0.21875,0.921875 -0.171875,0.25 -0.46875,0.421875 -0.8125,0.421875 -0.453125,0 -0.921875,-0.25 -1.09375,-0.71875 0.265625,0.015625 0.40625,-0.15625 0.40625,-0.34375 0,-0.296875 -0.265625,-0.34375 -0.359375,-0.34375 0,0 -0.34375,0 -0.34375,0.375 0,0.625 0.578125,1.25 1.40625,1.25 0.890625,0 1.671875,-0.65625 1.671875,-1.546875 0,-0.78125 -0.59375,-1.5 -1.453125,-1.5 -0.3125,0 -0.671875,0.0625 -0.984375,0.328125 z"
               style="stroke:none"
               inkscape:connector-curvature="0" />
          </symbol>
        </g>
      </defs>
      <g
         id="textext-5827da33-4">
        <g
           id="g13784"
           style="fill:#000000;fill-opacity:1">
          <use
             id="use13786"
             y="134.765"
             x="223.43201"
             xlink:href="#textext-5827da33-1"
             width="744.09448"
             height="1052.3622" />
        </g>
        <g
           id="g13788"
           style="fill:#000000;fill-opacity:1">
          <use
             id="use13790"
             y="136.259"
             x="229.244"
             xlink:href="#textext-5827da33-3"
             width="744.09448"
             height="1052.3622" />
        </g>
      </g>
    </g>
  </g>
</svg>
